<?xml version="1.0" encoding="UTF-8"?>
<svg version="1.1" xmlns="http://www.w3.org/2000/svg" width="228" height="154">
<path d="M0 0 C4.17299486 5.58331256 3.7012595 11.30846356 3 18 C1.22100566 22.89223443 -1.7337194 24.66174703 -6.125 27.125 C-31.4868188 38.84222147 -63.50811245 38.21818483 -90.875 38.1875 C-91.87033752 38.18689575 -92.86567505 38.1862915 -93.89117432 38.18566895 C-163.87669645 38.07041091 -163.87669645 38.07041091 -181.375 23.875 C-185.64806706 19.19497417 -185.29095199 15.02001283 -185.203125 8.9453125 C-184.94168994 5.15450416 -184.35230245 3.01388752 -182 0 C-151.57270485 -25.85176205 -30.28150241 -26.92499853 0 0 Z M-164 12 C-151.04074623 14.64734087 -138.18218376 16.86648045 -125 18 C-123.77796875 18.11214844 -122.5559375 18.22429688 -121.296875 18.33984375 C-87.78580546 20.85662161 -51.608117 20.56747808 -19 12 C-47.53050648 -3.67116935 -135.46949352 -3.67116935 -164 12 Z " fill="#E2DC0B" transform="translate(205,15)"/>
<path d="M0 0 C6.38231268 4.35983409 10.34920444 10.04570351 13.24609375 17.15625 C14.91963776 26.86280526 14.12590623 34.20829831 8.73828125 42.53125 C3.87397112 48.97404488 -1.40258211 50.85738521 -9.06640625 52.09375 C-14.36262078 52.74376566 -18.90728753 52.82557374 -24.12890625 51.78125 C-24.45890625 53.43125 -24.78890625 55.08125 -25.12890625 56.78125 C-32.91734022 56.85068556 -40.70570202 56.90402821 -48.4943676 56.93668652 C-52.11077665 56.95235901 -55.72697433 56.97362553 -59.34326172 57.00756836 C-62.83160613 57.04010631 -66.31974693 57.05809108 -69.80823135 57.06588173 C-71.79034394 57.07414269 -73.77237434 57.09757087 -75.75436401 57.12113953 C-76.95545807 57.12136612 -78.15655212 57.12159271 -79.39404297 57.12182617 C-80.4554953 57.12848801 -81.51694763 57.13514984 -82.61056519 57.14201355 C-83.44161774 57.02296158 -84.27267029 56.90390961 -85.12890625 56.78125 C-85.78890625 55.79125 -86.44890625 54.80125 -87.12890625 53.78125 C-84.72548217 51.37782592 -83.86330837 51.44126031 -80.55859375 51.1484375 C-79.66269531 51.06464844 -78.76679688 50.98085937 -77.84375 50.89453125 C-76.90660156 50.81589844 -75.96945313 50.73726562 -75.00390625 50.65625 C-74.05902344 50.56988281 -73.11414063 50.48351562 -72.140625 50.39453125 C-69.80398207 50.18210917 -67.46690955 49.97803458 -65.12890625 49.78125 C-65.13112686 49.18878479 -65.13334747 48.59631958 -65.13563538 47.98590088 C-65.15775232 41.8216614 -65.17283969 35.6574332 -65.18383789 29.49316406 C-65.18886782 27.19237816 -65.19569249 24.89159545 -65.2043457 22.59082031 C-65.21646984 19.28449718 -65.22214797 15.9782163 -65.2265625 12.671875 C-65.23172379 11.64257874 -65.23688507 10.61328247 -65.24220276 9.55279541 C-65.24231606 8.11175446 -65.24231606 8.11175446 -65.24243164 6.64160156 C-65.24465225 5.79776917 -65.24687286 4.95393677 -65.24916077 4.08453369 C-65.1326084 1.85215873 -64.75117478 -0.07734336 -64.12890625 -2.21875 C-61.65390625 -1.72375 -61.65390625 -1.72375 -59.12890625 -1.21875 C-57.53812882 3.66654151 -56.90746106 7.5952444 -57.08203125 12.7890625 C-57.12457031 14.10648438 -57.16710937 15.42390625 -57.2109375 16.78125 C-57.23881348 17.46058594 -57.26668945 18.13992187 -57.29541016 18.83984375 C-57.37784532 20.8799936 -57.44032086 22.92000959 -57.5 24.9609375 C-57.7978981 33.44950695 -58.81956148 41.27050899 -60.12890625 49.78125 C-50.88890625 49.12125 -41.64890625 48.46125 -32.12890625 47.78125 C-34.76890625 44.81125 -37.40890625 41.84125 -40.12890625 38.78125 C-43.68468613 29.8918003 -43.2484358 23.70720316 -40.12890625 14.78125 C-36.47050127 6.78274968 -31.27797007 0.89778863 -23.75390625 -3.65625 C-15.31707966 -5.46414141 -7.47057063 -4.27673034 0 0 Z M-31.73828125 9.734375 C-36.03513831 16.05896236 -38.44086368 23.14427675 -37.12890625 30.78125 C-35.36793673 37.13706715 -31.82029416 40.21320314 -26.34765625 43.65234375 C-20.93379681 46.40693068 -15.08223932 46.48117952 -9.12890625 45.78125 C-3.39805588 43.85498091 1.89846996 41.23106029 4.87109375 35.78125 C7.34027138 29.24442712 7.21008238 23.34484363 4.87109375 16.78125 C1.50014733 10.05005857 -2.97002239 4.65183766 -10.17578125 2.0390625 C-20.03516068 -0.66670704 -25.39041284 1.9164739 -31.73828125 9.734375 Z " fill="#687891" transform="translate(209.12890625,95.21875)"/>
<path d="M0 0 C6.40066082 4.82651456 9.52249733 12.7705823 10.921875 20.44921875 C11.12573899 23.50264835 11.07019285 26.38398319 10.921875 29.44921875 C11.911875 29.44921875 12.901875 29.44921875 13.921875 29.44921875 C14.416875 31.42921875 14.416875 31.42921875 14.921875 33.44921875 C12.941875 33.94421875 12.941875 33.94421875 10.921875 34.44921875 C10.87289062 35.1246875 10.82390625 35.80015625 10.7734375 36.49609375 C10.69867188 37.388125 10.62390625 38.28015625 10.546875 39.19921875 C10.44246094 40.52179688 10.44246094 40.52179688 10.3359375 41.87109375 C9.92337445 44.43988257 9.21026543 46.2076289 7.921875 48.44921875 C7.261875 48.44921875 6.601875 48.44921875 5.921875 48.44921875 C6.251875 43.82921875 6.581875 39.20921875 6.921875 34.44921875 C-4.958125 34.77921875 -16.838125 35.10921875 -29.078125 35.44921875 C-29.408125 39.40921875 -29.738125 43.36921875 -30.078125 47.44921875 C-31.398125 47.44921875 -32.718125 47.44921875 -34.078125 47.44921875 C-36.67831316 43.5489365 -36.22898014 39.97487306 -36.078125 35.44921875 C-38.388125 35.11921875 -40.698125 34.78921875 -43.078125 34.44921875 C-42.748125 33.45921875 -42.418125 32.46921875 -42.078125 31.44921875 C-39.768125 31.44921875 -37.458125 31.44921875 -35.078125 31.44921875 C-35.036875 30.41796875 -34.995625 29.38671875 -34.953125 28.32421875 C-33.57646055 17.70692994 -28.22048991 7.38765422 -20.078125 0.44921875 C-13.62306907 -3.84491717 -6.64333109 -3.6692817 0 0 Z M-20.640625 10.26171875 C-25.16608691 16.41634695 -27.15383597 23.12560108 -29.078125 30.44921875 C-27.55058594 30.35833984 -27.55058594 30.35833984 -25.9921875 30.265625 C-15.35550822 29.63516232 -4.71740485 29.03406805 5.921875 28.44921875 C4.95862464 19.38503287 3.15528693 11.50964496 -4.078125 5.44921875 C-4.408125 5.11921875 -4.738125 4.78921875 -5.078125 4.44921875 C-12.00908886 3.86184893 -15.88554383 4.7458246 -20.640625 10.26171875 Z " fill="#6B7A93" transform="translate(105.078125,93.55078125)"/>
<path d="M0 0 C2.34730906 0.93892362 3.72761105 1.58561233 5.13427734 3.72558594 C6.20740058 6.54487981 6.13659864 8.63194561 5.9765625 11.640625 C5.925 12.71054688 5.8734375 13.78046875 5.8203125 14.8828125 C5.75585938 15.99398437 5.69140625 17.10515625 5.625 18.25 C5.56828125 19.37664062 5.5115625 20.50328125 5.453125 21.6640625 C5.31180452 24.44336528 5.16040592 27.2217441 5 30 C6.18529297 29.7834375 6.18529297 29.7834375 7.39453125 29.5625 C17.65867559 27.8733151 27.62398307 27.80088667 38 28 C37.98428955 26.9941687 37.98428955 26.9941687 37.96826172 25.96801758 C37.92656829 22.91621684 37.90063147 19.86447616 37.875 16.8125 C37.85824219 15.75740234 37.84148438 14.70230469 37.82421875 13.61523438 C37.81455078 12.08286133 37.81455078 12.08286133 37.8046875 10.51953125 C37.78897705 9.11344604 37.78897705 9.11344604 37.77294922 7.67895508 C38.01833287 4.78369188 38.79478381 2.62937303 40 0 C40.99 0.33 41.98 0.66 43 1 C45.17335448 29.13222408 45.17335448 29.13222408 45.4375 40.625 C45.47166016 41.34478027 45.50582031 42.06456055 45.54101562 42.80615234 C45.55859375 44.7890625 45.55859375 44.7890625 45 48 C42.47265625 49.9609375 42.47265625 49.9609375 40 51 C38 47 38 47 37 34 C21.16 34.495 21.16 34.495 5 35 C5 37.31 5 39.62 5 42 C4.34375 44.65234375 4.34375 44.65234375 3.5 46.9375 C3.2215625 47.70964844 2.943125 48.48179687 2.65625 49.27734375 C2.4396875 49.84582031 2.223125 50.41429687 2 51 C1.34 51 0.68 51 0 51 C-1.19088986 45.61972975 -2.2919519 40.54708616 -2 35 C-3.98 35 -5.96 35 -8 35 C-8 34.01 -8 33.02 -8 32 C-6.02 31.67 -4.04 31.34 -2 31 C-2.01047363 30.20303711 -2.02094727 29.40607422 -2.03173828 28.58496094 C-2.07331772 24.97333938 -2.09933261 21.36176821 -2.125 17.75 C-2.14175781 16.49574219 -2.15851562 15.24148437 -2.17578125 13.94921875 C-2.18222656 12.74394531 -2.18867188 11.53867188 -2.1953125 10.296875 C-2.20578613 9.18666992 -2.21625977 8.07646484 -2.22705078 6.93261719 C-2.00468334 4.06049058 -1.49281575 2.42776265 0 0 Z " fill="#697891" transform="translate(13,94)"/>
<path d="M0 0 C0.99 1.485 0.99 1.485 2 3 C9.65255844 13.71689461 25.78507184 15.27816552 38.0625 17.34765625 C79.06579755 23.77476043 143.85305054 29.34025873 181.24609375 8.3359375 C183.99787338 6.23992718 185.43092277 4.06683278 187 1 C187.6875 2.6875 187.6875 2.6875 188 5 C185.08733277 11.47259385 179.87421491 14.29764044 173.64453125 17.01245117 C168.9062382 18.78187467 164.02213436 19.6920864 159.0625 20.625 C157.96220459 20.83737305 156.86190918 21.04974609 155.72827148 21.26855469 C146.51477467 22.99922974 137.34266511 24.26439176 128 25 C126.69804687 25.11085938 125.39609375 25.22171875 124.0546875 25.3359375 C34.3787872 32.07108951 34.3787872 32.07108951 4.6875 12.4375 C0.79213483 8.90449438 0.79213483 8.90449438 0 6 C-0.125 2.75 -0.125 2.75 0 0 Z " fill="#E7E339" transform="translate(20,42)"/>
<path d="M0 0 C0.6875 1.6875 0.6875 1.6875 1 4 C-0.53241105 7.14144264 -2.29454133 9.76505588 -5 12 C-5.66 12 -6.32 12 -7 12 C-6.58332936 7.13884258 -4.49843869 5.23605579 -1 2 C-0.67 1.34 -0.34 0.68 0 0 Z " fill="#EAE54D" transform="translate(207,43)"/>
</svg>
